#Comment line ignore any data following # character 
#Hierarchical Translation and Rotation (.htr) file 
[Header]	
#Header keywords are followed by a single value 
FileType HTR		#Single word string
DataType HTRS		#Translation followed by rotation and scale data
FileVersion 1		#integer
NumSegments 64		#integer
NumFrames 3		#integer
DataFrameRate 30		#integer, data frame rate in this file
EulerRotationOrder ZYX
CalibrationUnits mm
RotationUnits Degrees
GlobalAxisofGravity Y
BoneLengthAxis Y
ScaleFactor 1.00
[SegmentNames&Hierarchy]
#CHILD	PARENT
Pinger_Root GLOBAL
Pelvis Pinger_Root
L_Hip Pelvis
R_Hip Pelvis
Rear_Leg01 Pelvis
Spine1 Pelvis
L_Leg01 L_Hip
L_Leg02 L_Leg01
L_Leg03 L_Leg02
L_Foot L_Leg03
L_Toe1_01 L_Foot
L_Toe2_01 L_Foot
L_Toe3_01 L_Foot
planeAlignerLeft L_Foot
L_Toe1_02 L_Toe1_01
L_Toe1_03 L_Toe1_02
L_Toe2_02 L_Toe2_01
L_Toe2_03 L_Toe2_02
L_Toe3_02 L_Toe3_01
L_Toe3_03 L_Toe3_02
planeLockWeightLeft planeAlignerLeft
R_Leg01 R_Hip
R_Leg02 R_Leg01
R_Leg03 R_Leg02
R_Foot R_Leg03
planeAlignerRight R_Foot
R_Toe1_01 R_Foot
R_Toe2_01 R_Foot
R_Toe3_01 R_Foot
planeLockWeightRight planeAlignerRight
R_Toe1_02 R_Toe1_01
R_Toe1_03 R_Toe1_02
R_Toe2_02 R_Toe2_01
R_Toe2_03 R_Toe2_02
R_Toe3_02 R_Toe3_01
R_Toe3_03 R_Toe3_02
Rear_Leg02 Rear_Leg01
Rear_Leg03 Rear_Leg02
Rear_Leg04 Rear_Leg03
Rear_Foot Rear_Leg04
planeAlignerCenter Rear_Foot
Rear_Toe1_01 Rear_Foot
Rear_Toe2_01 Rear_Foot
Rear_Toe3_01 Rear_Foot
planeLockWeightCenter planeAlignerCenter
Rear_Toe1_02 Rear_Toe1_01
Rear_Toe1_03 Rear_Toe1_02
Rear_Toe2_02 Rear_Toe2_01
Rear_Toe2_03 Rear_Toe2_02
Rear_Toe3_02 Rear_Toe3_01
Rear_Toe3_03 Rear_Toe3_02
Back_Bone Spine1
Head Spine1
Motor_Bone Back_Bone
Ping_Mechanism Back_Bone
BN_LookIK Head
bottomMouth Head
L_Mouth01 Head
L_mouthFront Head
mouthGun Head
R_Mouth01 Head
R_mouthFront Head
TopMouth Head
weapon_bone Head
[BasePosition]
#SegmentName Tx, Ty, Tz, Rx, Ry, Rz, BoneLength
Pinger_Root 0.000000 0.000000 0.000000 -90.000000 0.000000 0.000000 10.000000 
Pelvis 0.000000 0.000000 0.000000 0.000000 0.000000 0.000000 10.000000 
L_Hip 0.000000 0.000000 0.000000 0.000000 0.000000 0.000000 10.000000 
R_Hip 0.000000 0.000000 0.000000 0.000000 0.000000 0.000000 10.000000 
Rear_Leg01 0.000000 0.000000 0.000000 0.000000 0.000000 0.000000 10.000000 
Spine1 0.000000 0.000000 0.000000 0.000000 0.000000 0.000000 10.000000 
L_Leg01 0.000000 0.000000 0.000000 0.000000 0.000000 0.000000 10.000000 
L_Leg02 0.000000 0.000000 0.000000 0.000000 0.000000 0.000000 10.000000 
L_Leg03 0.000000 0.000000 0.000000 0.000000 0.000000 0.000000 10.000000 
L_Foot 0.000000 0.000000 0.000000 0.000000 0.000000 0.000000 10.000000 
L_Toe1_01 0.000000 0.000000 0.000000 0.000000 0.000000 0.000000 10.000000 
L_Toe2_01 0.000000 0.000000 0.000000 0.000000 0.000000 0.000000 10.000000 
L_Toe3_01 0.000000 0.000000 0.000000 0.000000 0.000000 0.000000 10.000000 
planeAlignerLeft 0.000000 0.000000 0.000000 0.000000 0.000000 0.000000 10.000000 
L_Toe1_02 0.000000 0.000000 0.000000 0.000000 0.000000 0.000000 10.000000 
L_Toe1_03 0.000000 0.000000 0.000000 0.000000 0.000000 0.000000 10.000000 
L_Toe2_02 0.000000 0.000000 0.000000 0.000000 0.000000 0.000000 10.000000 
L_Toe2_03 0.000000 0.000000 0.000000 0.000000 0.000000 0.000000 10.000000 
L_Toe3_02 0.000000 0.000000 0.000000 0.000000 0.000000 0.000000 10.000000 
L_Toe3_03 0.000000 0.000000 0.000000 0.000000 0.000000 0.000000 10.000000 
planeLockWeightLeft 0.000000 0.000000 0.000000 0.000000 0.000000 0.000000 10.000000 
R_Leg01 0.000000 0.000000 0.000000 0.000000 0.000000 0.000000 10.000000 
R_Leg02 0.000000 0.000000 0.000000 0.000000 0.000000 0.000000 10.000000 
R_Leg03 0.000000 0.000000 0.000000 0.000000 0.000000 0.000000 10.000000 
R_Foot 0.000000 0.000000 0.000000 0.000000 0.000000 0.000000 10.000000 
planeAlignerRight 0.000000 0.000000 0.000000 0.000000 0.000000 0.000000 10.000000 
R_Toe1_01 0.000000 0.000000 0.000000 0.000000 0.000000 0.000000 10.000000 
R_Toe2_01 0.000000 0.000000 0.000000 0.000000 0.000000 0.000000 10.000000 
R_Toe3_01 0.000000 0.000000 0.000000 0.000000 0.000000 0.000000 10.000000 
planeLockWeightRight 0.000000 0.000000 0.000000 0.000000 0.000000 0.000000 10.000000 
R_Toe1_02 0.000000 0.000000 0.000000 0.000000 0.000000 0.000000 10.000000 
R_Toe1_03 0.000000 0.000000 0.000000 0.000000 0.000000 0.000000 10.000000 
R_Toe2_02 0.000000 0.000000 0.000000 0.000000 0.000000 0.000000 10.000000 
R_Toe2_03 0.000000 0.000000 0.000000 0.000000 0.000000 0.000000 10.000000 
R_Toe3_02 0.000000 0.000000 0.000000 0.000000 0.000000 0.000000 10.000000 
R_Toe3_03 0.000000 0.000000 0.000000 0.000000 0.000000 0.000000 10.000000 
Rear_Leg02 0.000000 0.000000 0.000000 0.000000 0.000000 0.000000 10.000000 
Rear_Leg03 0.000000 0.000000 0.000000 0.000000 0.000000 0.000000 10.000000 
Rear_Leg04 0.000000 0.000000 0.000000 0.000000 0.000000 0.000000 10.000000 
Rear_Foot 0.000000 0.000000 0.000000 0.000000 0.000000 0.000000 10.000000 
planeAlignerCenter 0.000000 0.000000 0.000000 0.000000 0.000000 0.000000 10.000000 
Rear_Toe1_01 0.000000 0.000000 0.000000 0.000000 0.000000 0.000000 10.000000 
Rear_Toe2_01 0.000000 0.000000 0.000000 0.000000 0.000000 0.000000 10.000000 
Rear_Toe3_01 0.000000 0.000000 0.000000 0.000000 0.000000 0.000000 10.000000 
planeLockWeightCenter 0.000000 0.000000 0.000000 0.000000 0.000000 0.000000 10.000000 
Rear_Toe1_02 0.000000 0.000000 0.000000 0.000000 0.000000 0.000000 10.000000 
Rear_Toe1_03 0.000000 0.000000 0.000000 0.000000 0.000000 0.000000 10.000000 
Rear_Toe2_02 0.000000 0.000000 0.000000 0.000000 0.000000 0.000000 10.000000 
Rear_Toe2_03 0.000000 0.000000 0.000000 0.000000 0.000000 0.000000 10.000000 
Rear_Toe3_02 0.000000 0.000000 0.000000 0.000000 0.000000 0.000000 10.000000 
Rear_Toe3_03 0.000000 0.000000 0.000000 0.000000 0.000000 0.000000 10.000000 
Back_Bone 0.000000 0.000000 0.000000 0.000000 0.000000 0.000000 10.000000 
Head 0.000000 0.000000 0.000000 0.000000 0.000000 0.000000 10.000000 
Motor_Bone 0.000000 0.000000 0.000000 0.000000 0.000000 0.000000 10.000000 
Ping_Mechanism 0.000000 0.000000 0.000000 0.000000 0.000000 0.000000 10.000000 
BN_LookIK 0.000000 0.000000 0.000000 0.000000 0.000000 0.000000 10.000000 
bottomMouth 0.000000 0.000000 0.000000 0.000000 0.000000 0.000000 10.000000 
L_Mouth01 0.000000 0.000000 0.000000 0.000000 0.000000 0.000000 10.000000 
L_mouthFront 0.000000 0.000000 0.000000 0.000000 0.000000 0.000000 10.000000 
mouthGun 0.000000 0.000000 0.000000 0.000000 0.000000 0.000000 10.000000 
R_Mouth01 0.000000 0.000000 0.000000 0.000000 0.000000 0.000000 10.000000 
R_mouthFront 0.000000 0.000000 0.000000 0.000000 0.000000 0.000000 10.000000 
TopMouth 0.000000 0.000000 0.000000 0.000000 0.000000 0.000000 10.000000 
weapon_bone 0.000000 0.000000 0.000000 0.000000 0.000000 0.000000 10.000000 
#Beginning of Data. Separated by tabs
#Fr	Tx	Ty	Tz	Rx	Ry	Rz	SF
[Pinger_Root]
22 0.000000 0.000000 0.000000 -0.000074 -0.000017 -25.433250 0.000000
23 0.000000 0.000000 0.000000 -0.000074 -0.000018 -27.760431 0.000000
24 0.000000 0.000000 0.000000 -0.000074 -0.000020 -30.081865 0.000000
[Pelvis]
22 -636.274597 552.507996 4436.337402 148.185318 -77.046082 -177.933975 4515.661621
23 -575.133484 467.327820 4451.369141 154.024353 -79.352783 175.068466 4512.633789
24 -503.151764 395.896362 4466.102051 163.194489 -81.457138 164.743988 4511.758301
[L_Hip]
22 5.766392 125.831482 872.656799 144.853882 -70.866707 140.665527 881.701050
23 5.766392 125.831482 872.656799 147.597672 -68.907959 137.630203 881.701050
24 5.766392 125.831482 872.656799 147.084305 -68.214600 138.155273 881.701050
[R_Hip]
22 5.765438 125.836372 -872.654907 37.517078 57.362923 126.361603 881.699829
23 5.765438 125.836372 -872.654907 37.992901 52.628300 126.007469 881.699829
24 5.765438 125.836372 -872.654907 38.087841 49.812687 125.703735 881.699829
[Rear_Leg01]
22 -192.298416 -925.602966 -0.001907 140.487457 32.814838 -159.446274 945.367432
23 -192.298416 -925.602966 -0.001907 142.836777 39.477669 -156.577072 945.367432
24 -192.298416 -925.602966 -0.001907 140.133774 40.914192 -161.085114 945.367432
[Spine1]
22 290.604584 5.007505 0.000477 -1.617039 18.976933 34.214611 290.647736
23 290.604584 5.007505 0.000477 -2.952738 17.598026 32.082748 290.647736
24 290.604584 5.007505 0.000477 -4.224249 16.173420 30.000671 290.647736
[L_Leg01]
22 761.932007 -0.002384 -0.069261 31.254875 1.962565 -16.175608 761.932068
23 761.932007 -0.002384 -0.069261 29.080334 4.218364 -15.629976 761.932068
24 761.932007 -0.002384 -0.069261 27.633232 4.258781 -14.995199 761.932068
[L_Leg02]
22 1441.140503 -0.000954 -0.000715 3.623211 -0.062285 -136.821625 1441.140503
23 1441.140503 -0.000954 -0.000715 2.782043 -0.209251 -134.229630 1441.140503
24 1441.140503 -0.000954 -0.000715 1.935559 -0.317961 -131.637161 1441.140503
[L_Leg03]
22 1686.963989 -0.000715 -0.000954 -0.036470 0.017045 120.077446 1686.963989
23 1686.963989 -0.000715 -0.000954 -0.020781 0.008371 115.923546 1686.963989
24 1686.963989 -0.000715 -0.000954 -0.004565 0.000866 111.493149 1686.963989
[L_Foot]
22 3041.570068 -30.715107 11.297464 -8.518844 29.477375 61.606960 3041.746094
23 3041.570068 -30.715107 11.297464 -11.382359 31.356020 59.937035 3041.746094
24 3041.570068 -30.715107 11.297464 -14.351015 33.768093 58.295425 3041.746094
[L_Toe1_01]
22 -188.216690 -224.732346 -21.137953 93.719086 -6.862506 -171.970444 293.899567
23 -188.216690 -224.732346 -21.137953 93.719101 -6.862508 -171.970444 293.899567
24 -188.216690 -224.732346 -21.137953 93.719086 -6.862505 -171.970444 293.899567
[L_Toe2_01]
22 200.746536 -219.926590 148.838394 -90.024002 -26.311703 -52.677628 332.896027
23 200.746536 -219.926590 148.838394 -90.023987 -26.311703 -52.677628 332.896027
24 200.746536 -219.926590 148.838394 -90.024002 -26.311708 -52.677631 332.896027
[L_Toe3_01]
22 188.832520 -219.859131 -191.078659 -99.788055 13.839008 -67.673027 347.140900
23 188.832520 -219.859131 -191.078659 -99.788055 13.839005 -67.673027 347.140900
24 188.832520 -219.859131 -191.078659 -99.788048 13.839010 -67.673027 347.140900
[planeAlignerLeft]
22 32.991158 -593.020935 101.088531 169.306686 -76.298271 89.968506 602.479126
23 32.991375 -593.020935 101.088509 169.306686 -76.298271 89.968506 602.479126
24 32.991592 -593.020874 101.088493 169.306686 -76.298271 89.968506 602.479126
[L_Toe1_02]
22 413.761139 0.000477 0.000000 0.001385 -25.906361 0.001385 413.761139
23 413.761139 0.000477 0.000000 0.001385 -25.901283 0.001385 413.761139
24 413.761139 0.000477 0.000000 0.001385 -25.896210 0.001385 413.761139
[L_Toe1_03]
22 464.317322 0.000358 -0.000089 0.003734 53.359097 0.003734 464.317322
23 464.317322 0.000358 -0.000089 0.003734 53.359097 0.003734 464.317322
24 464.317322 0.000358 -0.000089 0.003734 53.359097 0.003734 464.317322
[L_Toe2_02]
22 342.235809 -0.000477 0.000238 0.001188 -72.402016 0.001188 342.235809
23 342.235809 -0.000477 0.000238 0.001188 -72.402016 0.001188 342.235809
24 342.235809 -0.000477 0.000238 0.001188 -72.402016 0.001188 342.235809
[L_Toe2_03]
22 420.210846 -0.000715 0.000000 0.029090 85.375511 0.029090 420.210846
23 420.210846 -0.000715 0.000000 0.029090 85.375511 0.029090 420.210846
24 420.210846 -0.000715 0.000000 0.029090 85.375511 0.029090 420.210846
[L_Toe3_02]
22 329.270111 0.000954 0.000000 0.001178 -80.480331 0.001178 329.270111
23 329.270111 0.000954 0.000000 0.001178 -80.480293 0.001178 329.270111
24 329.270111 0.000954 0.000000 0.001178 -80.480331 0.001178 329.270111
[L_Toe3_03]
22 439.137451 -0.001907 0.000954 -179.995956 78.605698 -179.992447 439.137451
23 439.137451 -0.001907 0.000954 -179.995956 78.605721 -179.992447 439.137451
24 439.137451 -0.001907 0.000954 -179.995956 78.605698 -179.992447 439.137451
[planeLockWeightLeft]
22 999.999084 0.098267 0.076149 -0.011826 -0.004376 0.005620 999.999084
23 999.999084 0.098267 0.076148 -0.011826 -0.004376 0.005620 999.999084
24 999.999084 0.098267 0.076148 -0.011826 -0.004376 0.005620 999.999084
[R_Leg01]
22 761.455627 -0.001907 -0.000358 136.153290 26.213118 57.041180 761.455688
23 761.455627 -0.001907 -0.000358 136.898148 26.063843 48.097004 761.455688
24 761.455627 -0.001907 -0.000358 134.034256 24.382803 42.983555 761.455688
[R_Leg02]
22 1441.140625 0.000000 -0.000238 7.083453 -1.955533 -72.149590 1441.140625
23 1441.140625 0.000000 -0.000238 2.292691 -0.492514 -77.453094 1441.140625
24 1441.140625 0.000000 -0.000238 0.091795 0.109131 -78.537544 1441.140625
[R_Leg03]
22 1686.963989 0.000954 0.001431 -0.014503 0.005568 105.992058 1686.963989
23 1686.963989 0.000954 0.001431 -0.011504 0.001771 107.508034 1686.963989
24 1686.963989 0.000954 0.001431 -0.011512 0.001717 106.967445 1686.963989
[R_Foot]
22 3041.560059 -30.531288 -11.204481 14.357507 -28.271975 35.771355 3041.734131
23 3041.560059 -30.531288 -11.204481 10.131012 -27.546463 38.244774 3041.734131
24 3041.560059 -30.531288 -11.204481 10.273582 -33.016979 38.285149 3041.734131
[planeAlignerRight]
22 -74.812317 -793.351440 -408.226318 -10.278087 -65.598930 -89.435349 895.350220
23 -81.000046 -698.725769 -414.947174 -12.625178 -64.839630 -87.116211 816.676086
24 -106.418762 -568.477905 -393.382538 -22.444260 -65.445992 -77.657356 699.458313
[R_Toe1_01]
22 -188.383347 -224.864899 21.052242 71.848145 12.325647 -160.556335 294.101532
23 -188.383347 -224.864899 21.052242 69.259583 10.814101 -167.520035 294.101532
24 -188.383347 -224.864899 21.052242 69.105843 4.891109 -175.004547 294.101532
[R_Toe2_01]
22 200.637817 -220.002121 -148.787384 -87.431396 26.384644 -72.608543 332.857574
23 200.637817 -220.002121 -148.787384 -84.501648 30.365498 -64.917870 332.857574
24 200.637817 -220.002121 -148.787384 -84.840080 36.576138 -56.796234 332.857574
[R_Toe3_01]
22 188.606735 -220.092957 191.126343 -69.262718 4.526053 -93.413322 347.192566
23 188.606735 -220.092957 191.126343 -70.238098 1.335872 -89.022659 347.192566
24 188.606735 -220.092957 191.126343 -71.200089 -1.024428 -78.286118 347.192566
[planeLockWeightRight]
22 1000.000122 -0.000305 0.075846 -0.011823 -0.004379 -0.000027 1000.000122
23 1000.000122 -0.000296 0.075848 -0.011823 -0.004379 -0.000027 1000.000122
24 1000.000000 -0.000288 0.075850 -0.011823 -0.004379 -0.000027 1000.000000
[R_Toe1_02]
22 413.762085 0.000477 -0.000119 0.001449 -18.205721 0.001449 413.762085
23 413.762085 0.000477 -0.000119 0.001438 -19.378744 0.001438 413.762085
24 413.762085 0.000477 -0.000119 0.001423 -21.162321 0.001423 413.762085
[R_Toe1_03]
22 464.317810 0.000000 0.001088 -179.991425 83.616081 -179.987915 464.317810
23 464.317810 0.000000 0.001088 -179.976959 87.342369 -179.973465 464.317810
24 464.317810 0.000000 0.001088 -0.019142 86.212608 -0.015644 464.317810
[R_Toe2_02]
22 342.234741 -0.000954 0.000238 -0.002343 -74.910629 -0.002343 342.234741
23 342.234741 -0.000954 0.000238 -0.000580 -74.317978 -0.000580 342.234741
24 342.234741 -0.000954 0.000238 0.001186 -73.725349 0.001186 342.234741
[R_Toe2_03]
22 420.210846 0.000715 -0.000268 -179.975021 87.164688 -179.978516 420.210846
23 420.210846 0.000715 -0.000268 -179.949524 88.648384 -179.953018 420.210846
24 420.210846 0.000715 -0.000268 -0.078114 89.174568 -0.081611 420.210846
[R_Toe3_02]
22 329.270355 -0.000477 -0.000954 0.001183 -75.541183 0.001183 329.270355
23 329.270355 -0.000477 -0.000954 0.001181 -77.122459 0.001181 329.270355
24 329.270355 -0.000477 -0.000954 0.001179 -78.703712 0.001179 329.270355
[R_Toe3_03]
22 439.137939 0.000238 0.001431 -0.017875 85.914955 -0.014376 439.137939
23 439.137939 0.000238 0.001431 0.000000 89.738304 0.003494 439.137939
24 439.137939 0.000238 0.001431 -179.988785 84.918816 -179.985275 439.137939
[Rear_Leg02]
22 1162.777710 -0.029802 0.005960 0.013016 -3.922229 -89.766899 1162.777710
23 1162.777710 -0.029802 0.005960 -0.101698 -4.043079 -77.693588 1162.777710
24 1162.777710 -0.029802 0.005960 0.034575 -3.031142 -79.784630 1162.777710
[Rear_Leg03]
22 607.192505 -0.013351 -0.073195 0.006549 -0.001869 60.064732 607.192505
23 607.192505 -0.013351 -0.073195 0.006557 -0.001839 59.551258 607.192505
24 607.192505 -0.013351 -0.073195 0.006544 -0.001887 60.379166 607.192505
[Rear_Leg04]
22 995.874512 -0.020504 -0.011921 -0.039358 -0.017956 50.225315 995.874573
23 995.874512 -0.020504 -0.011921 -0.039214 -0.018270 49.309406 995.874573
24 995.874512 -0.020504 -0.011921 -0.039448 -0.017759 50.799503 995.874573
[Rear_Foot]
22 3096.176270 -0.067472 -0.041425 -18.598568 78.952400 169.025330 3096.176270
23 3096.176270 -0.067472 -0.041425 -18.745995 78.354782 165.354843 3096.176270
24 3096.176270 -0.067472 -0.041425 -19.500732 81.600052 164.081116 3096.176270
[planeAlignerCenter]
22 138.490753 -8.357544 -621.482971 14.338389 7.226603 -166.937271 636.781433
23 144.074524 -6.230473 -616.375305 14.539171 7.142927 -165.706497 633.020386
24 127.023544 -14.574890 -657.183350 14.990946 10.156168 -164.756760 669.505310
[Rear_Toe1_01]
22 0.653352 83.966492 -371.173737 -10.990370 32.577793 93.885590 380.553192
23 0.653352 83.966492 -371.173737 -11.016175 32.425091 94.934151 380.553192
24 0.653352 83.966492 -371.173737 -13.841543 35.731312 95.487175 380.553192
[Rear_Toe2_01]
22 178.200760 -294.826019 -362.060547 -2.497726 18.931105 -43.203030 499.765686
23 178.200760 -294.826019 -362.060547 -2.800815 18.333189 -41.555401 499.765686
24 178.200760 -294.826019 -362.060547 0.242295 18.704048 -40.950607 499.765686
[Rear_Toe3_01]
22 -153.359680 -308.780914 -362.060852 13.092356 26.580187 -86.072685 499.952881
23 -153.359680 -308.780914 -362.060852 13.038813 25.996443 -84.261711 499.952881
24 -153.359680 -308.780914 -362.060852 16.811224 28.750896 -83.124260 499.952881
[planeLockWeightCenter]
22 1000.000244 0.000000 0.076405 -0.011814 -0.004373 -0.000015 1000.000244
23 1000.000244 0.000000 0.076412 -0.011814 -0.004373 -0.000015 1000.000244
24 1000.000244 0.000000 0.076418 -0.011814 -0.004373 -0.000015 1000.000244
[Rear_Toe1_02]
22 379.707825 0.194073 0.000477 0.001332 -33.563816 0.001332 379.707855
23 379.707825 0.194073 0.000477 0.001332 -33.563297 0.001332 379.707855
24 379.707825 0.194073 0.000477 0.001332 -33.562786 0.001332 379.707855
[Rear_Toe1_03]
22 500.129700 0.165701 0.000119 0.007898 72.909500 0.007898 500.129761
23 500.129700 0.165701 0.000119 0.008173 73.488586 0.008173 500.129761
24 500.129700 0.165701 0.000119 0.006591 69.484970 0.006591 500.129761
[Rear_Toe2_02]
22 340.494507 0.000238 -0.000954 0.001208 -62.689171 0.001208 340.494507
23 340.494507 0.000238 -0.000954 0.001211 -61.563301 0.001211 340.494507
24 340.494507 0.000238 -0.000954 0.001204 -64.300163 0.001204 340.494507
[Rear_Toe2_03]
22 433.103577 0.000000 0.000238 0.004477 59.602554 0.004477 433.103546
23 433.103577 0.000000 0.000238 0.004276 58.143085 0.004276 433.103546
24 433.103577 0.000000 0.000238 0.004814 61.780296 0.004814 433.103546
[Rear_Toe3_02]
22 340.494141 -0.000358 -0.000477 0.001192 -69.908821 0.001192 340.494171
23 340.494141 -0.000358 -0.000477 0.001193 -69.559204 0.001193 340.494171
24 340.494141 -0.000358 -0.000477 0.008065 -66.681686 -0.009238 340.494171
[Rear_Toe3_03]
22 433.103577 0.001431 -0.000238 0.006722 69.888763 0.006722 433.103546
23 433.103577 0.001431 -0.000238 0.006555 69.370697 0.006555 433.103546
24 433.103577 0.001431 -0.000238 -0.000875 65.100311 -0.004456 433.103546
[Back_Bone]
22 1312.175781 -701.934692 0.000954 0.000023 -0.000007 -85.606667 1488.125488
23 1312.175781 -701.934692 0.000954 0.000023 -0.000007 -85.606667 1488.125488
24 1312.175781 -701.934692 0.000954 0.000023 -0.000007 -85.606667 1488.125488
[Head]
22 1406.159424 809.709290 0.001431 0.000008 0.000003 7.767519 1622.625488
23 1406.159424 809.709290 0.001431 0.000008 0.000003 7.767519 1622.625488
24 1406.159424 809.709290 0.001431 0.000008 0.000003 7.767519 1622.625488
[Motor_Bone]
22 1158.364380 -417.834747 0.000477 -0.099160 -1.704489 -106.022308 1231.419434
23 1158.364380 -417.834747 0.000477 -0.097497 -1.216780 -105.990280 1231.419434
24 1158.364380 -417.834747 0.000477 -0.095385 0.076104 -105.915703 1231.419434
[Ping_Mechanism]
22 1184.932007 -402.733734 -50.889584 0.000103 -0.000053 82.120995 1252.536621
23 1192.147827 -410.252686 -45.794762 0.000103 -0.000053 82.120995 1261.594604
24 1202.212280 -418.555084 -39.242146 0.000103 -0.000053 82.120995 1273.594482
[BN_LookIK]
22 193.241119 1380.371704 -0.002861 0.000000 89.965736 -31.038179 1393.832153
23 193.241119 1380.371704 -0.002861 0.000000 89.965736 -31.038179 1393.832153
24 193.241119 1380.371704 -0.002861 0.000000 89.965736 -31.038179 1393.832153
[bottomMouth]
22 -435.092926 615.759399 -0.000954 -0.000022 0.000016 73.527184 753.966492
23 -435.092926 615.759399 -0.000954 -0.000022 0.000016 73.527184 753.966492
24 -435.092926 615.759399 -0.000954 -0.000022 0.000016 73.527184 753.966492
[L_Mouth01]
22 554.440979 7.658243 838.222046 150.204178 23.759130 109.605339 1005.027161
23 554.440979 7.658243 838.222046 150.204178 23.759130 109.605339 1005.027161
24 554.440979 7.658243 838.222046 150.204178 23.759130 109.605339 1005.027161
[L_mouthFront]
22 551.629089 934.514771 339.150421 0.000081 2.804060 79.119301 1136.941284
23 551.629089 934.514771 339.150421 0.000081 2.804060 79.119301 1136.941284
24 551.629089 934.514771 339.150421 0.000081 2.804060 79.119301 1136.941284
[mouthGun]
22 55.332661 1627.420898 0.000000 0.000023 0.000009 -11.038128 1628.361328
23 55.332661 1627.420898 0.000000 0.000023 0.000009 -11.038128 1628.361328
24 55.332661 1627.420898 0.000000 0.000023 0.000009 -11.038128 1628.361328
[R_Mouth01]
22 554.442383 7.659197 -838.223938 29.795891 -23.759109 109.605331 1005.029541
23 554.442383 7.659197 -838.223938 29.795891 -23.759109 109.605331 1005.029541
24 554.442383 7.659197 -838.223938 29.795891 -23.759109 109.605331 1005.029541
[R_mouthFront]
22 551.629089 934.514282 -339.151367 0.000029 -2.803930 79.119133 1136.941162
23 551.629089 934.514282 -339.151367 0.000029 -2.803930 79.119133 1136.941162
24 551.629089 934.514282 -339.151367 0.000029 -2.803930 79.119133 1136.941162
[TopMouth]
22 461.269867 -56.106091 -0.008583 -0.000059 -0.000268 92.025169 464.669525
23 461.269867 -56.106091 -0.008583 -0.000059 -0.000268 92.025169 464.669525
24 461.269867 -56.106091 -0.008583 -0.000059 -0.000268 92.025169 464.669525
[weapon_bone]
22 -987.239868 1448.372803 0.001431 0.000000 89.965736 -31.038221 1752.833740
23 -987.239868 1448.372803 0.001431 0.000000 89.965736 -31.038221 1752.833740
24 -987.239868 1448.372803 0.001431 0.000000 89.965736 -31.038221 1752.833740
